<svg width="36" height="36" viewBox="0 0 36 36" fill="none" xmlns="http://www.w3.org/2000/svg">
<rect width="36" height="36" rx="18" fill="#084566"/>
<path d="M20.408 28.1666C20.1928 28.1673 19.9802 28.1198 19.7858 28.0276C19.5914 27.9354 19.4201 27.8008 19.2845 27.6337L12.3277 18.9916C12.1158 18.7339 12 18.4106 12 18.077C12 17.7434 12.1158 17.4201 12.3277 17.1624L19.5294 8.52033C19.7738 8.22618 20.1252 8.04121 20.506 8.00609C20.8869 7.97098 21.2661 8.0886 21.5602 8.33308C21.8544 8.57756 22.0394 8.92888 22.0745 9.30974C22.1096 9.69061 21.992 10.0698 21.7475 10.364L15.3092 18.0842L21.5314 25.8044C21.7076 26.0158 21.8194 26.2733 21.8538 26.5463C21.8882 26.8193 21.8437 27.0965 21.7255 27.345C21.6073 27.5935 21.4204 27.8029 21.1869 27.9485C20.9534 28.0941 20.6831 28.1698 20.408 28.1666Z" fill="white"/>
</svg>
