<svg width="24" height="24" viewBox="0 0 24 24" fill="none" xmlns="http://www.w3.org/2000/svg">
<path d="M19.8495 11.8023H18.7996C18.7171 11.8023 18.6496 11.8636 18.6496 11.9384V17.3802H6.34996V6.22442H12.3498C12.4323 6.22442 12.4998 6.1632 12.4998 6.08837V5.13605C12.4998 5.06122 12.4323 5 12.3498 5H5.59998C5.26812 5 5 5.24318 5 5.54419V18.0605C5 18.3615 5.26812 18.6047 5.59998 18.6047H19.3995C19.7314 18.6047 19.9995 18.3615 19.9995 18.0605V11.9384C19.9995 11.8636 19.932 11.8023 19.8495 11.8023Z" fill="#084566"/>
<path d="M9.573 12.1917L9.53737 14.2137C9.5355 14.3651 9.67049 14.4892 9.83736 14.4892H9.84486L12.0573 14.4399C12.0948 14.4382 12.1323 14.4246 12.1585 14.4008L19.9564 7.3434C20.0145 7.29068 20.0145 7.20395 19.9564 7.15123L17.6259 5.03911C17.5959 5.0119 17.5584 5 17.519 5C17.4796 5 17.4421 5.0136 17.4121 5.03911L9.61612 12.0965C9.58904 12.1222 9.57364 12.1562 9.573 12.1917ZM10.7636 12.5931L17.519 6.4795L18.3665 7.24646L11.6073 13.3634L10.7505 13.3822L10.7636 12.5931Z" fill="#084566"/>
</svg>
