<svg width="44" height="44" viewBox="0 0 44 44" fill="none" xmlns="http://www.w3.org/2000/svg">
<path d="M19.0598 34.2402V31.4664C20.1322 31.3737 21.1375 30.9056 21.8986 30.1445C22.6598 29.3834 23.1279 28.3781 23.2206 27.3057H25.9944C25.9047 29.1159 25.1453 30.8281 23.8638 32.1096C22.5822 33.3912 20.87 34.1506 19.0598 34.2402V34.2402Z" fill="#2C3959"/>
<path d="M22.1418 40.0191C18.7713 40.0149 15.54 38.6546 13.1567 36.2365C10.7733 33.8185 9.43258 30.5401 9.42847 27.1205C9.50449 24.6063 10.2324 22.1569 11.5389 20.0192L20.9454 4.81608C21.0812 4.62262 21.2607 4.4649 21.4688 4.35608C21.6769 4.24725 21.9077 4.19048 22.1418 4.19048C22.376 4.19048 22.6067 4.24725 22.8148 4.35608C23.023 4.4649 23.2024 4.62262 23.3383 4.81608L32.7038 19.9446C34.0322 22.1022 34.7744 24.5779 34.8552 27.1205C34.8511 30.5401 33.5103 33.8185 31.127 36.2365C28.7437 38.6546 25.5124 40.0149 22.1418 40.0191V40.0191ZM22.1418 8.27145L13.9742 21.4681C12.9218 23.1664 12.3284 25.1159 12.2537 27.1205C12.2537 29.7812 13.2954 32.3329 15.1498 34.2143C17.0042 36.0957 19.5193 37.1527 22.1418 37.1527C24.7643 37.1527 27.2794 36.0957 29.1338 34.2143C30.9882 32.3329 32.03 29.7812 32.03 27.1205C31.9494 25.0878 31.3413 23.1128 30.2671 21.395L22.1418 8.27145Z" fill="#2C3959"/>
</svg>
