<svg width="44" height="44" viewBox="0 0 44 44" fill="none" xmlns="http://www.w3.org/2000/svg">
<path d="M19.5852 16.375H22.3352V28.75H19.5852V16.375ZM16.8352 4H25.0852V6.75H16.8352V4Z" fill="#2C3959"/>
<path d="M37.4604 13.625L35.5079 11.6862L32.4142 14.78C29.8817 11.8554 26.3198 10.0189 22.4686 9.65217C18.6173 9.28543 14.7728 10.4166 11.7339 12.8106C8.69494 15.2046 6.69518 18.6775 6.15011 22.5075C5.60503 26.3376 6.55656 30.2304 8.80698 33.3772C11.0574 36.524 14.4337 38.6828 18.2343 39.405C22.035 40.1272 25.9678 39.3574 29.2156 37.2554C32.4634 35.1534 34.7766 31.8809 35.6744 28.1179C36.5722 24.3549 35.9857 20.3906 34.0367 17.0487L37.4604 13.625ZM20.9604 37C18.5129 37 16.1203 36.2742 14.0852 34.9144C12.0502 33.5546 10.4641 31.6219 9.52742 29.3607C8.59078 27.0994 8.34572 24.6112 8.82321 22.2107C9.3007 19.8102 10.4793 17.6052 12.21 15.8745C13.9407 14.1438 16.1457 12.9652 18.5462 12.4877C20.9467 12.0102 23.4349 12.2553 25.6961 13.1919C27.9574 14.1286 29.8901 15.7147 31.2499 17.7498C32.6097 19.7848 33.3354 22.1774 33.3354 24.625C33.3354 27.907 32.0316 31.0546 29.7109 33.3754C27.3901 35.6962 24.2425 37 20.9604 37V37Z" fill="#2C3959"/>
</svg>
