<svg width="127" height="144" viewBox="0 0 127 144" fill="none" xmlns="http://www.w3.org/2000/svg">
<path d="M54.6505 49.7812H65.713V99.5625H54.6505V49.7812ZM43.588 0H76.7755V11.0625H43.588V0Z" fill="black"/>
<path d="M126.557 38.7188L118.702 30.9197L106.257 43.365C96.0696 31.6002 81.7411 24.2127 66.2486 22.7374C50.7561 21.262 35.2908 25.8123 23.0659 35.4428C10.841 45.0734 2.79651 59.0436 0.603835 74.451C-1.58884 89.8583 2.23888 105.518 11.2917 118.177C20.3445 130.835 33.9264 139.519 49.2154 142.425C64.5044 145.33 80.325 142.233 93.3901 133.778C106.455 125.322 115.76 112.158 119.372 97.0199C122.984 81.8822 120.624 65.935 112.784 52.4916L126.557 38.7188ZM60.1817 132.75C50.3359 132.75 40.7112 129.83 32.5247 124.36C24.3383 118.89 17.9577 111.116 14.1898 102.019C10.422 92.9229 9.43618 82.9135 11.357 73.2569C13.2778 63.6003 18.019 54.7301 24.9811 47.7681C31.9431 40.8061 40.8133 36.0649 50.4699 34.1441C60.1265 32.2232 70.1358 33.2091 79.2322 36.9769C88.3285 40.7447 96.1033 47.1253 101.573 55.3118C107.043 63.4983 109.963 73.123 109.963 82.9688C109.963 96.1716 104.718 108.834 95.3824 118.169C86.0466 127.505 73.3845 132.75 60.1817 132.75Z" fill="black"/>
</svg>
