<svg width="23" height="23" viewBox="0 0 23 23" fill="none" xmlns="http://www.w3.org/2000/svg">
<path fill-rule="evenodd" clip-rule="evenodd" d="M17.759 11.1429C17.7595 12.5788 17.2669 13.9714 16.3637 15.0876C15.4605 16.2039 14.2013 16.9762 12.7969 17.2753C11.3925 17.5745 9.92796 17.3824 8.64824 16.7311C7.36851 16.0798 6.35121 15.0088 5.76648 13.6974L3.82902 14.4843C4.59707 16.2442 5.9476 17.6859 7.65355 18.5671C9.3595 19.4484 11.3168 19.7154 13.1965 19.3233C15.0762 18.9312 16.7635 17.904 17.9749 16.4142C19.1863 14.9244 19.8478 13.063 19.8483 11.1429C19.8483 9.39864 19.3027 7.6981 18.2877 6.27957C17.2728 4.86104 15.8394 3.79562 14.1886 3.23264C12.5377 2.66965 10.752 2.63731 9.08186 3.14015C7.41168 3.64299 5.94069 4.65581 4.87505 6.03666V3.48216H2.78577V10.0982H3.83041H8.70541V8.00894H6.06177C6.75138 6.81342 7.81631 5.87893 9.0913 5.35049C10.3663 4.82206 11.7801 4.72923 13.1132 5.08641C14.4463 5.44358 15.6243 6.2308 16.4643 7.32589C17.3044 8.42098 17.7594 9.76271 17.759 11.1429Z" fill="#084566"/>
</svg>
