<svg width="24" height="24" viewBox="0 0 24 24" fill="none" xmlns="http://www.w3.org/2000/svg">
<path d="M12 18V16.5C12.5799 16.4499 13.1236 16.1967 13.5351 15.7851C13.9467 15.3736 14.1999 14.8299 14.25 14.25H15.75C15.7015 15.2289 15.2909 16.1548 14.5978 16.8478C13.9048 17.5409 12.9789 17.9515 12 18Z" fill="black"/>
<path d="M12 21C10.2105 20.9978 8.49484 20.286 7.22944 19.0206C5.96404 17.7552 5.25218 16.0395 5.25 14.25C5.29037 12.9343 5.67685 11.6525 6.3705 10.5338L11.3647 2.57775C11.4369 2.47651 11.5322 2.39398 11.6427 2.33703C11.7532 2.28008 11.8757 2.25037 12 2.25037C12.1243 2.25037 12.2468 2.28008 12.3573 2.33703C12.4678 2.39398 12.5631 2.47651 12.6353 2.57775L17.6077 10.4948C18.313 11.6239 18.7071 12.9194 18.75 14.25C18.7478 16.0395 18.036 17.7552 16.7706 19.0206C15.5052 20.286 13.7895 20.9978 12 21ZM12 4.386L7.6635 11.292C7.10475 12.1808 6.7897 13.2009 6.75 14.25C6.75 15.6424 7.30312 16.9777 8.28769 17.9623C9.27226 18.9469 10.6076 19.5 12 19.5C13.3924 19.5 14.7277 18.9469 15.7123 17.9623C16.6969 16.9777 17.25 15.6424 17.25 14.25C17.2072 13.1863 16.8843 12.1527 16.314 11.2538L12 4.386Z" fill="black"/>
</svg>
