<svg width="1024" height="1024" viewBox="0 0 1024 1024" fill="none" xmlns="http://www.w3.org/2000/svg">
<path d="M904 512H848C843.6 512 840 515.6 840 520V840H184V184H504C508.4 184 512 180.4 512 176V120C512 115.6 508.4 112 504 112H144C126.3 112 112 126.3 112 144V880C112 897.7 126.3 912 144 912H880C897.7 912 912 897.7 912 880V520C912 515.6 908.4 512 904 512Z" fill="black"/>
<path d="M355.9 534.9L354 653.8C353.9 662.7 361.1 670 370 670H370.4L488.4 667.1C490.4 667 492.4 666.2 493.8 664.8L909.7 249.8C912.8 246.7 912.8 241.6 909.7 238.5L785.4 114.3C783.8 112.7 781.8 112 779.7 112C777.6 112 775.6 112.8 774 114.3L358.2 529.3C356.756 530.811 355.934 532.81 355.9 534.9ZM419.4 558.5L779.7 199L824.9 244.1L464.4 603.8L418.7 604.9L419.4 558.5Z" fill="black"/>
</svg>
