<svg width="44" height="44" viewBox="0 0 44 44" fill="none" xmlns="http://www.w3.org/2000/svg">
<path d="M23.0476 5.23809C13.2126 5.23809 5.23804 13.2126 5.23804 23.0476C5.23804 32.8826 13.2126 40.8571 23.0476 40.8571C32.8826 40.8571 40.8571 32.8826 40.8571 23.0476C40.8571 13.2126 32.8826 5.23809 23.0476 5.23809ZM23.0476 37.8359C14.8822 37.8359 8.2593 31.213 8.2593 23.0476C8.2593 14.8823 14.8822 8.25935 23.0476 8.25935C31.2129 8.25935 37.8358 14.8823 37.8358 23.0476C37.8358 31.213 31.2129 37.8359 23.0476 37.8359ZM28.5335 29.4956H21.37V29.3088C22.4592 28.625 23.1151 27.3052 23.1151 25.6872C23.1151 25.1267 23.0277 24.5781 22.9044 24.0574H26.8241C26.9991 24.0574 27.1422 23.9142 27.1422 23.7393V22.5467C27.1422 22.3718 26.9991 22.2287 26.8241 22.2287H22.3718C22.0855 21.3303 21.8391 20.412 21.8391 19.4261C21.8391 17.6968 23.1907 16.6354 25.3095 16.6354C26.1642 16.6354 26.999 16.7984 27.7106 17.0528C27.9174 17.1283 28.132 16.9733 28.132 16.7507V15.1804C28.132 15.0492 28.0485 14.93 27.9253 14.8823C27.1779 14.596 26.1841 14.3774 25.1306 14.3774C21.4375 14.3774 19.108 16.1464 19.108 19.1597C19.108 20.2053 19.3823 21.2269 19.6884 22.2247H17.5616C17.3867 22.2247 17.2436 22.3678 17.2436 22.5428V23.7354C17.2436 23.9103 17.3867 24.0534 17.5616 24.0534H20.229C20.3642 24.6378 20.4636 25.2221 20.4636 25.8105C20.4636 27.6073 19.3187 29.1219 17.5695 29.5553C17.4264 29.591 17.327 29.7182 17.327 29.8653V31.3958C17.327 31.5707 17.4702 31.7139 17.6451 31.7139H28.5335C28.7084 31.7139 28.8516 31.5707 28.8516 31.3958V29.8136C28.8516 29.6387 28.7084 29.4956 28.5335 29.4956Z" fill="#2C3959"/>
</svg>
