<svg width="64" height="64" viewBox="0 0 64 64" fill="none" xmlns="http://www.w3.org/2000/svg">
<path d="M40.5333 53.3333V55.4667C41.0991 55.4667 41.6418 55.2419 42.0418 54.8418C42.4419 54.4418 42.6667 53.8991 42.6667 53.3333H40.5333ZM23.4667 53.3333H21.3333C21.3333 53.8991 21.5581 54.4418 21.9582 54.8418C22.3582 55.2419 22.9009 55.4667 23.4667 55.4667V53.3333ZM25.6 64H38.4V59.7333H25.6V64ZM15.2747 27.3067L15.232 27.6053L19.456 28.2027L19.4987 27.904L15.2747 27.3067ZM32 12.8C27.9328 12.7993 24.0018 14.2662 20.9293 16.9311C17.8568 19.5961 15.849 23.2802 15.2747 27.3067L19.4987 27.904C19.929 24.8954 21.4303 22.143 23.7267 20.1522C26.0232 18.1614 28.9608 17.0658 32 17.0667V12.8ZM48.7253 27.3067C48.1511 23.2802 46.1432 19.5961 43.0707 16.9311C39.9982 14.2662 36.0672 12.7993 32 12.8V17.0667C35.039 17.0667 37.9761 18.1626 40.2724 20.1532C42.5686 22.1439 44.0701 24.8957 44.5013 27.904L48.7253 27.3067ZM48.768 27.6053L48.7253 27.3067L44.5013 27.904L44.544 28.2027L48.768 27.6053ZM45.3973 40.3584C48.0853 36.8853 49.4421 32.3584 48.768 27.6011L44.544 28.2069C44.7884 29.8847 44.6913 31.5946 44.2588 33.2339C43.8262 34.8733 43.067 36.4084 42.0267 37.7472L45.3973 40.3584ZM38.4 46.5067V53.3333H42.6667V46.5109H38.4V46.5067ZM40.5333 51.2H23.4667V55.4667H40.5333V51.2ZM25.6 53.3333V46.5109H21.3333V53.3333H25.6ZM15.232 27.6053C14.9077 29.8485 15.039 32.134 15.6182 34.3252C16.1973 36.5165 17.2124 38.5684 18.6027 40.3584L21.9733 37.7472C20.933 36.4084 20.1738 34.8733 19.7412 33.2339C19.3087 31.5946 19.2116 29.8847 19.456 28.2069L15.232 27.6011V27.6053ZM25.6 46.5067C25.6 42.9952 23.7312 40.0085 21.9733 37.7429L18.6027 40.3541C20.2368 42.4661 21.3333 44.4843 21.3333 46.5067H25.6ZM42.0267 37.7429C40.2645 40.0128 38.4 42.9952 38.4 46.5067H42.6667C42.6667 44.4843 43.7632 42.4661 45.3973 40.3541L42.0267 37.7429ZM29.8667 0V8.53333H34.1333V0H29.8667ZM0 34.1333H8.53333V29.8667H0V34.1333ZM55.4667 34.1333H64V29.8667H55.4667V34.1333ZM14.3104 15.5563L7.9104 9.15627L4.8896 12.1771L11.2896 18.5771L14.3104 15.5563ZM52.7104 18.5771L59.1104 12.1771L56.0896 9.15627L49.6896 15.5563L52.7104 18.5771Z" fill="#084566"/>
</svg>
