<svg width="18" height="18" viewBox="0 0 18 18" fill="none" xmlns="http://www.w3.org/2000/svg">
<path d="M9 0C4.02991 0 0 4.02991 0 9C0 13.9701 4.02991 18 9 18C13.9701 18 18 13.9701 18 9C18 4.02991 13.9701 0 9 0ZM9 16.4732C4.87366 16.4732 1.52679 13.1263 1.52679 9C1.52679 4.87366 4.87366 1.52679 9 1.52679C13.1263 1.52679 16.4732 4.87366 16.4732 9C16.4732 13.1263 13.1263 16.4732 9 16.4732ZM11.7723 12.2585H8.15223V12.1641C8.70268 11.8185 9.03415 11.1516 9.03415 10.3339C9.03415 10.0507 8.98995 9.77344 8.92768 9.51027H10.9085C10.9969 9.51027 11.0692 9.43795 11.0692 9.34955V8.74687C11.0692 8.65848 10.9969 8.58616 10.9085 8.58616H8.65848C8.51384 8.13214 8.38929 7.66808 8.38929 7.16987C8.38929 6.29598 9.07232 5.7596 10.1431 5.7596C10.575 5.7596 10.9969 5.84196 11.3565 5.97054C11.4609 6.00871 11.5694 5.93036 11.5694 5.81786V5.02433C11.5694 4.95804 11.5272 4.89777 11.465 4.87366C11.0873 4.72902 10.585 4.61853 10.0527 4.61853C8.18638 4.61853 7.00915 5.5125 7.00915 7.03527C7.00915 7.56362 7.14777 8.07991 7.30246 8.58415H6.22768C6.13929 8.58415 6.06696 8.65647 6.06696 8.74487V9.34754C6.06696 9.43594 6.13929 9.50826 6.22768 9.50826H7.57567C7.64397 9.80357 7.6942 10.0989 7.6942 10.3962C7.6942 11.3042 7.11563 12.0696 6.2317 12.2886C6.15938 12.3067 6.10915 12.371 6.10915 12.4453V13.2188C6.10915 13.3071 6.18147 13.3795 6.26987 13.3795H11.7723C11.8607 13.3795 11.933 13.3071 11.933 13.2188V12.4192C11.933 12.3308 11.8607 12.2585 11.7723 12.2585Z" fill="black"/>
</svg>
