<svg width="18" height="18" viewBox="0 0 18 18" fill="none" xmlns="http://www.w3.org/2000/svg">
<path fill-rule="evenodd" clip-rule="evenodd" d="M15.759 9.14287C15.7595 10.5788 15.2669 11.9714 14.3637 13.0876C13.4605 14.2039 12.2013 14.9762 10.7969 15.2753C9.39252 15.5745 7.92796 15.3824 6.64824 14.7311C5.36851 14.0798 4.35121 13.0088 3.76648 11.6974L1.82902 12.4843C2.59707 14.2442 3.9476 15.6859 5.65355 16.5671C7.3595 17.4484 9.31684 17.7154 11.1965 17.3233C13.0762 16.9312 14.7635 15.904 15.9749 14.4142C17.1863 12.9244 17.8478 11.063 17.8483 9.14287C17.8483 7.39864 17.3027 5.6981 16.2877 4.27957C15.2728 2.86104 13.8394 1.79562 12.1886 1.23264C10.5377 0.669651 8.75204 0.637312 7.08186 1.14015C5.41168 1.64299 3.94069 2.65581 2.87505 4.03666V1.48216H0.785767V8.09823H1.83041H6.70541V6.00894H4.06177C4.75138 4.81342 5.81631 3.87893 7.0913 3.35049C8.3663 2.82206 9.78006 2.72923 11.1132 3.08641C12.4463 3.44358 13.6243 4.2308 14.4643 5.32589C15.3044 6.42098 15.7594 7.76271 15.759 9.14287Z" fill="#084566"/>
</svg>
