<svg width="8" height="14" viewBox="0 0 8 14" fill="none" xmlns="http://www.w3.org/2000/svg">
<path d="M6.22566 13.6666C6.08339 13.6671 5.94282 13.6357 5.81429 13.5747C5.68575 13.5137 5.5725 13.4247 5.48287 13.3143L0.883307 7.60052C0.743242 7.43012 0.666672 7.21639 0.666672 6.99581C0.666672 6.77524 0.743242 6.5615 0.883307 6.39111L5.64476 0.677361C5.8064 0.482887 6.03868 0.36059 6.29049 0.337373C6.5423 0.314157 6.79302 0.391922 6.98749 0.553563C7.18197 0.715203 7.30426 0.947478 7.32748 1.19929C7.3507 1.4511 7.27293 1.70182 7.11129 1.89629L2.85455 7.00057L6.96845 12.1049C7.0849 12.2446 7.15887 12.4148 7.18161 12.5954C7.20435 12.7759 7.17491 12.9591 7.09676 13.1234C7.01862 13.2877 6.89505 13.4262 6.74068 13.5224C6.5863 13.6187 6.40758 13.6687 6.22566 13.6666Z" fill="black"/>
</svg>
