<svg width="16" height="18" viewBox="0 0 16 18" fill="none" xmlns="http://www.w3.org/2000/svg">
<path d="M6.9092 6.24483H8.30779V12.4897H6.9092V6.24483ZM5.51062 0H9.70637V1.38774H5.51062V0Z" fill="white"/>
<path d="M16 4.85708L15.007 3.87873L13.4336 5.43993C12.1456 3.96409 10.3342 3.03736 8.37551 2.85229C6.41686 2.66722 4.46165 3.23803 2.91612 4.44613C1.37058 5.65424 0.353551 7.40674 0.0763401 9.33952C-0.20087 11.2723 0.283052 13.2368 1.42756 14.8247C2.57207 16.4127 4.28917 17.5021 6.22209 17.8665C8.15501 18.231 10.1551 17.8425 11.8069 16.7818C13.4587 15.721 14.635 14.0696 15.0917 12.1707C15.5483 10.2717 15.25 8.27123 14.2588 6.58482L16 4.85708ZM7.60851 16.6529C6.36375 16.6529 5.14694 16.2866 4.11196 15.6004C3.07698 14.9142 2.27031 13.9389 1.79396 12.7978C1.31761 11.6567 1.19297 10.4011 1.43582 9.18973C1.67866 7.97836 2.27807 6.86563 3.15824 5.99228C4.03842 5.11893 5.15984 4.52416 6.38068 4.28321C7.60152 4.04225 8.86696 4.16592 10.017 4.63857C11.167 5.11123 12.1499 5.91164 12.8415 6.9386C13.533 7.96556 13.9021 9.17293 13.9021 10.408C13.9021 12.0643 13.239 13.6527 12.0588 14.8238C10.8785 15.9949 9.27768 16.6529 7.60851 16.6529Z" fill="white"/>
</svg>
